<svg id="Capa_1" data-name="Capa 1" xmlns="http://www.w3.org/2000/svg" viewBox="0 0 1849.59 1042.27"><defs><style>.cls-1{fill:none;stroke:#000;stroke-opacity:0.1;stroke-linecap:round;stroke-linejoin:round;stroke-width:3.08px;}</style></defs><path class="cls-1" d="M655.65,14.51c-3.7.88-5.23,3.56-6.73,6.88-7.17,15.85-16.54,30.51-25,45.68-5.49,9.86-11.35,19.5-14.58,30.54-4.62,15.82,1.86,24.66,18,29.47C654,135,681.18,141.31,706.53,153.5c28.28,13.6,48,35,62.4,62.43,18.6,35.41,43.87,65.15,77.18,87.9,24.46,16.71,50.94,29.7,76.81,43.86,22.71,12.43,45.37,24.9,64.81,42.53,14.37,13,23.67,28.62,26.84,47.5,1.85,11,1.26,22.39,0,33.43a394.81,394.81,0,0,1-10.25,54.28c-3,11.49-5.93,23-8.18,34.63-2.28,11.89-3.68,23.89-5.57,35.83-1.63,10.34-2.86,20.76-4.07,31.17-1.83,15.77-3.16,31.6-5.3,47.33-3.27,24-5.32,48.29-14.89,71-6.13,14.58-16.14,26-27.71,36.4A259,259,0,0,1,890,817a238,238,0,0,1-73.87,26.09c-19,3.34-38,5.24-57.17,4.41-27.1-1.16-54.83-15.43-65.15-45.53C690,790.74,690.13,779,692,767.35c2.9-17.84,8.15-35.1,12.7-52.54,5.43-20.84,8.48-41.88,6.39-63.51a136.31,136.31,0,0,0-18.73-56.45,313.91,313.91,0,0,0-80.07-90.15c-17.69-13.57-37.9-22.52-58.25-31.29-28.33-12.21-56.94-24-82.57-41.52-20.67-14.16-37.73-32.09-51.78-52.64a129,129,0,0,1-15.88-31c-7.09-20.8-2.55-39.08,10.45-56.06C426,276.86,440.36,264,453,249.49c20.9-23.87,42.43-47.27,60.43-73.45,9.42-13.72,12.35-28.69,4.14-45-7-13.85-8.31-28.35.49-42.72,3.48-5.67,3.41-13,7-19a279.28,279.28,0,0,0,23.71-49c.81-2.2,1.63-4.29,4.06-5.19" transform="translate(-59.46 -12.39)"/><path class="cls-1" d="M360.63,826c16.36,1,32.71,2.67,49.08,3,17.11.35,34.22,1.18,51.39.36,14.62-.7,28.92-2.39,42.69-7.2,17.51-6.13,33.58-14.78,45-30C555.6,783,558,772.56,557.66,761c-.7-20.72-9.45-38.43-19.89-55.35-27-43.76-58.81-83.89-94.06-121.25-22.12-23.45-48.51-41.19-77.29-55.5q-31-15.42-61.75-31.23a50.29,50.29,0,0,1-15.66-12c-8.93-10.55-8.32-22-4.06-34.11,4.62-13.18,12.56-24.45,20.35-35.72C322,391.75,339.53,368.33,355.84,344c9.21-13.71,14-29.41,15.86-46.05,3.11-27.79-1.56-54.65-8.08-81.44-1.35-5.57-2-11.24-5.29-16.15-7-10.44-20-13.22-32.31-7.45-11.89,5.58-19.51,15.58-26,26.52-9,15.13-17.91,30.21-25.61,46.09-9.36,19.31-14.25,39.5-16,60.7-1.91,22.9-2.15,45.95-5.74,68.71q-6.54,41.47-37.52,69.86c-28.8,26.3-59.74,50-89.93,74.63-7.52,6.13-15.08,12.7-20.33,21.21-4.81,7.81-3.79,12.65,3.44,18.49a44.74,44.74,0,0,0,18.51,8.51c19.84,4.52,30,17.51,35,36.47,9.2,34.76,24.83,66.74,44,97,7.46,11.76,15.6,23.15,22.31,35.32,5.26,9.54,9.06,19.88,14.58,29.37,12.59,21.63,31.73,33,56.05,36.31,13.21,1.8,26.55,1.74,39.84,2.36,6.54.3,13.08.78,19.63,1.11,1.67.09,1.94,1,1.73,2.34" transform="translate(-59.46 -12.39)"/><path class="cls-1" d="M992.81,1052.55c1.66-1.44,2.91-3.14,5.16-4.14,32.3-14.3,61.14-33.87,87.23-57.62,11.56-10.52,22.81-21.19,29.49-35.78a87,87,0,0,0,8-34.67c.4-18.12-1.22-36.19-1.49-54.27-.49-33.29,8.84-63.4,32.09-88.36,22.28-23.92,43.79-48.57,66.57-72,21.8-22.43,43.8-44.7,66.69-66.1,14.92-14,30.15-27.57,45.23-41.35,10.89-10,22-19.65,30.5-31.85,6-8.57,11.49-17.35,14.24-27.67,2.89-10.82,1.73-21.13-3.9-30.56-9.63-16.13-24.78-26.07-40.91-34.68C1310.05,461.93,1287,454,1263.57,447c-17.91-5.38-36-9.94-54.25-14.23-14.65-3.46-29.22-6.09-44.46-6.32-16.59-.25-30,5.77-42.13,15.92-20.44,17.05-32.69,39.61-43.45,63.43-13.39,29.62-21.89,60.66-27.35,92.47a336.87,336.87,0,0,0-4.72,73.85c.77,15.62,2.73,31.18,4.21,46.77,2,21.2,3.95,42.47-1,63.48-3.15,13.38-11,23.73-22.33,31.88-16.88,12.16-36,19.6-54.93,27.57-29.58,12.47-59.32,24.52-88.87,37-19.72,8.36-39.82,15.8-59.41,24.39-19.36,8.5-39.16,16.4-55,31.45-14,13.21-17.18,29.06-13.68,46.86,4.63,23.48,7.87,47,7.43,71" transform="translate(-59.46 -12.39)"/><path class="cls-1" d="M1907.3,285.28c-.07,2,0,3.55-2.18,5.34-16,13.19-34.2,22.6-52.67,31.58-19.06,9.26-38.7,17.22-57.77,26.48-25.28,12.28-48.2,27.44-65.75,49.76a137.17,137.17,0,0,0-21.23,39.31c-5.64,16-14.08,30.24-23.88,43.78-15.4,21.29-33.23,40.61-50.11,60.71-16.27,19.38-31.83,39.35-48,58.79a370.89,370.89,0,0,1-39,40.11c-21.48,19-45.84,33.42-70.75,46.91-19.06,10.31-38.72,19.53-57.67,30.14-37.89,21.2-68.78,49.35-90.7,87.2a225.86,225.86,0,0,0-26.2,67.08c-4.69,22.41-6.22,45.23-1.46,68.09,5.51,26.49,22.77,43.42,48,50.1,18.23,4.83,35.09,1.81,50.88-9.55,25.15-18.09,53.42-30,83-38.83,11.31-3.37,22.44-7.25,32.89-12.75a96.55,96.55,0,0,0,35.79-32.88c21-31.73,43.32-62.61,62.9-95.27,8.31-13.86,13.95-29,20.25-43.85,11.66-27.46,29.38-48.41,59.46-56.62,25.85-7.06,49.12,2.45,62.8,24.38a236.75,236.75,0,0,0,58.61,64.36c20.31,15.3,42.9,27,66.81,36,7.93,3,15.67,6.49,23.73,9,2.81.89,2.24,1.95,2,3.66" transform="translate(-59.46 -12.39)"/><path class="cls-1" d="M1907.3,318.18c-16.35,6.93-32.63,14.07-49.09,20.73-21.51,8.71-42.84,17.75-62.91,29.5-24.65,14.44-44.48,33.3-54.79,60.64-3.7,9.81-5.17,20.16-6.53,30.56-1.92,14.69-2.44,29.74-9.63,43.35-5.25,9.92-12.33,18-22,23.63a219.86,219.86,0,0,0-60.23,51.81c-14.68,18.08-29.31,36.27-45.9,52.78a318.43,318.43,0,0,1-63,49,365.1,365.1,0,0,1-45.69,22.91c-13.55,5.62-27.13,11.15-40.34,17.49-26.76,12.84-51.88,28.35-72.65,49.73-23.48,24.19-41.8,51.77-51,84.75-5.53,19.92-7.67,40.26-4.93,60.6,3.08,22.81,17.89,38,38.46,39.77,15.45,1.32,30.69-1.28,45.57-5.2q28.17-7.44,56-16.16c19.83-6.25,39.26-13.68,56-26.5,11-8.45,18.37-20,25.47-31.69,11.6-19.14,23.58-38,35.14-57.2,12.58-20.85,26.68-40.9,34.92-64.08,4.21-11.84,7.23-24.14,12-35.72,8.67-20.9,24.17-36.18,43.18-47.92,12.32-7.61,25.11-14.47,37.46-22,21.75-13.35,36.59-32.55,46.2-56,3.94-9.59,7.62-19.28,11.59-28.85,5.41-13.06,15.7-19.36,29.42-20.16,12.11-.69,24.24-1.1,36.37-1.16a139.74,139.74,0,0,0,68.7-18c3.46-1.94,6.84-4,10.43-5.7,2.16-1,1.62-2.55,1.69-4.12" transform="translate(-59.46 -12.39)"/><path class="cls-1" d="M684.52,15.08c-4.67,3-4.75,8.43-6.85,12.74-6.24,12.8-12.64,25.55-16.79,39.23-5.33,17.55.18,27.42,13.83,36.93,13.14,9.16,28.34,13.56,43.3,18.48,30.09,9.89,53.16,28.7,69.09,55.83,5.82,9.92,9.33,21.16,14.84,31.39a225.47,225.47,0,0,0,25.17,37.5c22.69,27.31,51.32,46.91,81.94,64.16,29.5,16.62,60.65,30,90.15,46.62,15.86,8.94,29.74,19.78,38,36.45a67.74,67.74,0,0,1,7,28.27c.65,20.32-2.3,40.16-6.17,60.08-5.85,30.09-12.85,60-18.52,90.06-5,26.6-9,53.41-12.74,80.23-3.1,22.42-4.72,45-7.31,67.5-3,26.19-13.15,49.65-31.42,69.38s-41.89,31.77-65.36,43.71a459.6,459.6,0,0,1-78.47,30.7c-23.25,6.85-46.84,12.51-71,14.27-37.05,2.7-70.39-7.07-98.1-32.79-9.12-8.46-18.76-16.21-30.67-20.05-14.82-4.77-29.78-2.74-44.4,1.4-16.63,4.71-33,10.19-49.69,14.88-27.16,7.67-54.91,11.62-83.11,13.19-22.42,1.24-44.66-1.07-67-1.91-15.22-.57-30.41-1.66-45.62-2.23-16.64-.61-33.15-2.34-49.66-4.51-15.55-2.06-30.52-5.47-44.44-12.85a66,66,0,0,1-29.32-31.24c-13-28-26.73-55.53-40.6-83-6.67-13.22-12.07-27-19.5-39.91-13.39-23.19-32-40.66-56.13-52.08a130.59,130.59,0,0,0-30-9.53c-1.82-.36-2-1.53-2.87-2.43" transform="translate(-59.46 -12.39)"/><path class="cls-1" d="M1063.25,13.93c-12.58,1.53-22.66,8.93-33.44,14.52-21,10.92-42,21.87-62.46,33.87a35,35,0,0,0-9.13,7.07c-2.77,3.21-2.42,8.35.54,11.5,7.2,7.66,16.77,10.71,26.57,12.6,17.16,3.32,34.65,4.85,51.37,10.46,36.61,12.27,64.83,34.87,84.23,68.2,13.45,23.12,21.76,48.16,26.69,74.43,2.55,13.6,3.84,27.34,5.88,41,3.66,24.43,13.36,46.3,30.37,64.72,22.67,24.56,51.48,39,82,50.75,31,11.88,63.07,20.35,94.63,30.46,16.22,5.2,32.26,11.14,47.39,19.2,12.59,6.71,24,15.05,31.63,27.22,8.68,13.75,9.12,28.95,5.29,44.37-5.16,20.76-15.38,38.7-29.31,55-18,21-39.46,38-60.77,55.28-21.57,17.46-43.48,34.46-64.15,53-23.28,20.94-44.42,43.69-62.18,69.44a311.21,311.21,0,0,0-45.74,101c-5.6,22-8,44.52-11,67-4.43,32.73-16.24,62.27-40.88,85.43-11.65,11-25.65,18.34-39.81,25.45-8.3,4.17-16.55,8.47-24.83,12.68-1.9,1-3.71,2-4.62,4" transform="translate(-59.46 -12.39)"/><path class="cls-1" d="M1149.85,13.93c-4.3.88-8.47,2.1-12.12,4.63-13.87,9.6-27.9,19-41.52,28.93-10.1,7.38-8.79,13.44-4.6,21.25,11.6,21.62,25.19,42.07,38,63,9.72,15.85,21.73,30.19,29.6,47.27,6.85,14.89,11.39,30.36,14.88,46.25,5.6,25.44,8.24,51.51,17.22,76.24,9.07,25,24.79,44.34,46.85,58.88,27,17.82,57.09,28.67,87.77,38.06s62.22,16.39,92.35,27.79c11.6,4.39,23.61,8,34.06,15,18.9,12.6,27.82,30.64,28.3,53.09.38,18.34-4.46,35.38-12,52-15.14,33.32-38.22,60.24-65.29,84.3-33.28,29.57-68.79,56.54-101.52,86.7-28.39,26.15-54.94,54.06-72.36,89.31a242.46,242.46,0,0,0-20.81,61.78,322.29,322.29,0,0,0-5.61,70.45c.31,11.18,1.66,22.32,2.18,33.49.75,16.05-2.62,30.7-14.33,42.78s-24.6,22.5-38.12,32.32c-2,1.42-4.31,2.61-5.23,5.15" transform="translate(-59.46 -12.39)"/><path class="cls-1" d="M1907.3,98.22c0,15.2-.38,30.42.19,45.6.24,6.15-2.72,11.18-3.5,16.77-2.28,16.25-3.89,32.67-8.42,48.42-4.89,17-13,32.49-25.18,45.7-24.36,26.41-54.55,43.47-87.76,56-20.49,7.76-41.16,15.13-60.66,25.31a146.56,146.56,0,0,0-61.25,59.45c-20,35.64-40.3,71.16-62.14,105.78-15.3,24.26-31.37,47.94-49.32,70.26-22.35,27.8-48.21,51.93-79.65,69.22-18.24,10-37.19,18.75-55.94,27.82-32.52,15.74-63,34.39-87.67,61.29a241.21,241.21,0,0,0-34.18,48.41c-16.37,30.27-26.26,62.88-35.15,95.87-8.05,29.86-15.39,59.91-24.43,89.52-2.8,9.18-6.37,18.28-6.27,28.25.09,9.1,3.38,16.16,10.42,22,10.75,8.95,22.85,15.77,34.69,23,6.19,3.79,12.29,7.74,18.5,11.5,1.73,1,3.26,2.15,4,4.08" transform="translate(-59.46 -12.39)"/><path class="cls-1" d="M1603.63,196.37c-15.22-.61-23.52,8.48-30.12,20.73-6.2,11.48-10.16,23.84-14.71,35.92a176,176,0,0,1-28.46,49.6c-15,18.51-34.1,32.34-53.19,46.1-9.56,6.89-19.62,13.1-29.38,19.72-2.36,1.6-6.2,2.15-6.26,5.75a17.65,17.65,0,0,0,4,10.87,52,52,0,0,0,14.87,12.27c19.87,11.61,37.06,26.07,49.17,46.1,7.82,12.94,12.08,27.08,15.55,41.59,1.22,5.1,2.13,10.24,4.51,15.06,4.08,8.28,9.95,10.54,17.94,5.11,10.83-7.36,18.72-17.7,25.91-28.32,22.23-32.83,40.08-68.2,58.32-103.32,6.16-11.87,12.25-23.66,20.85-34,14.42-17.38,33.5-27.52,54.34-34.49,19-6.37,38.58-11.27,57.66-17.53,33.92-11.14,63-29.58,84.27-58.84,11.81-16.25,15.81-35.12,17.52-54.8.9-10.21.78-20.14-1.87-30a16.37,16.37,0,0,0-.5-2.34c-3.86-9.65-8.7-11.48-16.74-5.06-8.84,7-17.08,14.85-25.48,22.42-11.56,10.43-24.35,18.53-39.85,21.63-12.8,2.56-25.51,1.34-38.09-1.46-20.38-4.53-40.21-3.57-58.87,6.44-21.09,11.3-43.49,14.57-67,12.06l-13.85-1.44" transform="translate(-59.46 -12.39)"/><path class="cls-1" d="M1907.3,244.86c.68,4.88-1,8.76-3.92,12.79-9.11,12.42-20.68,21.83-33.58,30-34.78,21.95-72,39.18-109.16,56.5-27.53,12.82-49.77,31.09-65.37,57.69-19.66,33.52-40.33,66.46-62.78,98.23-21,29.67-41.77,59.48-64.61,87.8-24.72,30.65-54.45,55.16-88.29,75.16-17.9,10.58-36.1,20.56-54.43,30.31-15.91,8.46-31.53,17.2-46.16,27.79a248.92,248.92,0,0,0-59.28,61.35,250.22,250.22,0,0,0-43,134.42c-.27,11.55-2.06,23.07-1.58,34.64.54,13,1.77,25.82,8.5,37.59,5.46,9.57,13.06,16.85,21.44,23.65,11.12,9,24,15.46,35.18,24.29,6.09,4.79,12.69,9.11,17.39,15.51" transform="translate(-59.46 -12.39)"/><path class="cls-1" d="M1023.41,1052.55c1.4-3,4.32-4.41,7-5.7,21.7-10.58,42.23-23.22,62.21-36.6,27.33-18.3,44.9-43.8,52.76-76,3.48-14.31,4.34-28.77,5.08-43.32a224.8,224.8,0,0,1,14.33-67.59c12.46-33.33,31.79-62.35,54.37-89.44,19.23-23.08,40.76-43.94,63-64,20.69-18.62,42.51-36,63.31-54.48,17.5-15.55,35.46-30.74,49.73-49.56,10.88-14.35,18.69-29.89,18.49-48.49-.15-14.52-6-26.2-17.32-35.22-22.47-17.85-47.93-29.77-75-38.75q-60.45-20-119.6-43.63c-30.13-12.07-59.94-24.91-90.06-37-25.88-10.36-52.33-19.27-78.44-29.05-35.28-13.21-71.39-24.35-105.08-41.56C900.46,278,875.7,260,856,235.6c-12.44-15.41-21.54-32.7-23.46-52.54-1.7-17.66,1.39-34.44,18.26-45,5.76-3.59,12.34-4.61,19-4.64,16.17-.07,32.37.63,48.49-.2,16.78-.88,33.53-.25,50.23.41,28.47,1.12,56.6,4.73,83.18,16.43,27.69,12.18,46.44,32.53,56.42,60.74,8,22.73,9.4,46.37,8.38,70.4-1,23.74-5.16,47-11,69.75-4.92,19.27-10.65,38.47-17.42,57.29-9.09,25.28-17.64,50.75-26.33,76.18-7.28,21.28-13.48,42.9-19,64.68a554.37,554.37,0,0,0-14.13,79.66c-1.68,16.67-2.18,33.47-3,50.22-.92,19.05-.94,38.17-3,57.14-3.61,33.52-19.47,60-47.27,79.1-28.32,19.5-59.58,33.29-91.26,46.09-19.21,7.77-38.74,14.8-58.29,21.68-24.48,8.62-49,17.11-73.84,24.72a78.13,78.13,0,0,0-21.36,10.33c-10.07,6.95-12.93,17.25-12.12,28.81.83,11.71,3.59,23.15,5.85,34.62,3.42,17.45,4.47,34.75-.75,52-2,6.46-4.56,12.72-6.87,19.07" transform="translate(-59.46 -12.39)"/><path class="cls-1" d="M63,655.34c2.33,2.89,6,2.23,9,3.11,25.35,7.36,44.48,22.84,59.5,44.19,16,22.77,27.72,47.6,36.26,74,5.29,16.35,8.08,33.31,11,50.21,4,22.92,9,31.68,35.21,35.72,19.87,3.06,40,3.54,60,4.64,28.28,1.56,56.57,2.78,84.86,4.08,10.78.49,21.56.81,32.33,1.17,29.83,1,59.66,2.56,89.49,2.68,22.7.09,45.41-2,68.13-2.57C559,872.26,569,874.05,577.7,880c5.93,4,11.6,8.4,10.95,16.72-.48,6.13-5.33,9.43-9.22,13.26-18.48,18.17-38.31,34.85-57.73,52-14,12.33-21.33,27.92-24.4,46.18-2.29,13.66-3.15,27.57-6.77,41-.32,1.17-.77,2.31-1.15,3.47" transform="translate(-59.46 -12.39)"/><path class="cls-1" d="M1441.4,19.7c-8.85.34-13.45,5.77-13.88,16.17-.37,9.05-.86,18.1-1.55,27.15-1.36,17.89-10.3,30.38-24.93,39.9-12.65,8.22-26.86,12-41,16.07-17.34,4.92-35.17,8.15-52,15-9.7,4-18.77,8.74-25.44,17.3-9.76,12.53-9.89,26.67-6.48,41,6.22,26.13,18.54,49.33,37.23,68.62,16.08,16.59,35.89,27.72,58.81,31.08,40.09,5.87,74.72-5.85,102-36.27,10.44-11.62,16.62-25.73,21.07-40.84,5.37-18.26,7.93-37.09,12.66-55.44a298,298,0,0,1,21.74-57.22c7.73-15.67,7-29.91-5.6-43.38-14.87-15.84-31.34-28.57-52.61-34.67-9.72-2.78-19.39-4.74-29.48-4.48" transform="translate(-59.46 -12.39)"/><path class="cls-1" d="M1071.33,643.22c-.14,23.9,3.17,47.19,12.77,69.25a63.54,63.54,0,0,0,16.64,23.16c14.08,12.19,26.74,11.79,42.7,1.6a417,417,0,0,0,65.29-51.29c34.18-33,68.45-65.87,101.5-100,10.93-11.28,19.82-24.23,24.41-39.71,3.89-13.08,1.54-24.87-7-35.18-12.95-15.57-30.65-24.34-48.43-33-19.43-9.46-40.08-15.06-61.23-18.28-30.64-4.65-60-1.32-84.76,19.57-18.2,15.37-31.64,34.59-41,56.49a251.45,251.45,0,0,0-17.51,61.74,292,292,0,0,0-3.31,45" transform="translate(-59.46 -12.39)"/><path class="cls-1" d="M519.4,16.53c-12.21,29-31.27,53.65-49.5,78.91C458.3,111.53,449,128.85,445.15,149a74.71,74.71,0,0,1-8.84,23.18c-6.2,10.68-11.41,11.76-20.77,5.66-8.49-5.54-15.94-12.66-25.46-16.66C363.56,150,337.92,149,313.86,167.49c-7.63,5.87-12.81,13.8-18.49,21.35-20.52,27.28-38.56,56-51.34,87.78-7.1,17.67-11.51,36-14.55,54.82-3.6,22.23-5.62,44.85-14.87,65.85a170.1,170.1,0,0,1-24.35,39.77c-21.3,25.83-45.5,48.8-70.95,70.49-16.8,14.32-34.22,27.85-51.91,41.05-2.63,2-5.49,4.19-5.82,8" transform="translate(-59.46 -12.39)"/><path class="cls-1" d="M1581.69,732.71c-1-6.56-1-13.47-5.25-19-5.9-7.78-14.3-8.76-23-6.89a557,557,0,0,0-56,14.91c-31.9,10.42-62.19,24-89.53,43.83-27.88,20.26-49.42,45.37-61,78.07-5,14.27-10.26,28.92-9.23,44.39,1,15.2,5.63,29.24,18.91,38.66,7.27,5.16,15.92,5.57,24.22,5.08,32.86-1.92,64.46-9.8,95.29-21.16,15.78-5.82,27-17.1,37.53-29.47,23.55-27.61,40.63-59,54.25-92.4,7.26-17.82,12.5-36.13,13.85-55.43" transform="translate(-59.46 -12.39)"/><path class="cls-1" d="M1907,871.84c1.44-3.25-1.31-3.69-3.19-4.6-18.9-9.16-37.92-18-56.61-27.65A372.3,372.3,0,0,1,1767,784.65c-10.1-9.13-19.81-18.71-30.11-27.61a74.12,74.12,0,0,0-25.32-14.83c-19.34-6.34-31.5-.66-42.11,10.75-9.55,10.27-15.86,22.65-22.06,35.13-9.34,18.81-16.77,38.63-28.82,56-6.67,9.62-14.21,18.58-20.86,28.24a292.61,292.61,0,0,0-22.87,40c-7.55,15.76-19.68,25.21-35.83,31.33-19.15,7.25-38.41,14.21-57.92,20.25a60.23,60.23,0,0,0-25.75,16c-9,9.17-10.35,18.35-.05,30.41,8.31,9.74,19.52,16,30,23.09,7.08,4.77,14.59,8.9,21.89,13.35a17.9,17.9,0,0,1,5.78,5.77" transform="translate(-59.46 -12.39)"/><path class="cls-1" d="M488.22,16.53c-5.42,15.83-14.33,29.79-24.36,42.92-12.58,16.49-25.62,32.68-42,45.69-14,11.07-29.29,18.83-47.33,20.87-17.27,1.95-34.41,4.68-50.25,12.59a102.18,102.18,0,0,0-39.15,33.58c-21.85,31.68-43.67,63.42-63.47,96.43-10,16.69-14.47,35.37-16.38,54.76-2.52,25.6-5,51.25-16.05,75.08-8.24,17.73-19.28,33.6-31.84,48.43a545.84,545.84,0,0,1-40.85,43.44,358.56,358.56,0,0,1-49.19,38.55c-2,1.32-4.07,2.4-5.17,4.66" transform="translate(-59.46 -12.39)"/><path class="cls-1" d="M454.16,16a2.5,2.5,0,0,0-1.8,2c-5.29,17.19-12.91,33.32-24.27,47.28-13,16-30.63,25.59-49.55,33-21.05,8.23-42.65,15.11-62.39,26.5A161.56,161.56,0,0,0,262,175.06c-15,22.41-30,44.7-48.94,64.23-9.94,10.25-20.11,20.52-27.52,33.18a81.81,81.81,0,0,0-11.32,35.9c-1,13.16,1.84,26.16,2.14,39.26a113.13,113.13,0,0,1-5.75,38.07c-10.13,30.64-28.42,56.29-50.15,79.69-13.92,15-28.2,29.61-44.45,42.14-3.38,2.61-6.67,5.55-10.48,7.31-2,.93-2.1,2.63-3.37,3.68" transform="translate(-59.46 -12.39)"/><path class="cls-1" d="M1355.38,13.93c6.1,1.77,10.14,5.85,14,10.85,5.58,7.19,11.12,14.33,14.81,22.65,9.13,20.55,2.56,36.43-15,47.3-12.44,7.71-26.38,11.42-40.38,15.13-15.71,4.15-32,6.54-46.78,13.77-23.2,11.32-31.66,30.73-29.09,54.83,2.8,26.21,14.09,49.36,27.43,71.55a136.7,136.7,0,0,0,37.47,41,123.06,123.06,0,0,0,67,23.66c33.07,1.63,62.84-8.06,88.17-29,19.94-16.51,34.27-37.37,41.88-62.68,4.77-15.86,8.48-32,12.34-48a90.73,90.73,0,0,1,19.29-38.6c6.38-7.46,12.54-15.21,19.71-21.84,13.15-12.16,13.71-25.94,7.92-41.09-7-18.22-19.94-31.74-35.17-43.32-4.38-3.33-9.07-6.29-13.21-9.89s-9.32-5-14.49-6.28" transform="translate(-59.46 -12.39)"/><path class="cls-1" d="M922.38,1034.65c18.55,1.3,36.59-1.52,54.26-6.94,33.87-10.39,60.75-30.33,80.82-59.46,13.94-20.24,12.89-43.33-1.73-62.34-7.89-10.27-18.87-15.38-31.17-17.86-19.68-4-39.17-2.87-58.92.92-37,7.12-72,19.18-104.42,38.37-10.53,6.23-21.17,12.79-28.79,22.54-13.66,17.49-12.38,34.54,3.4,51.81,12,13.19,27.94,20.28,44.43,26,13.41,4.63,27.44,6.29,41.54,7.29" transform="translate(-59.46 -12.39)"/><path class="cls-1" d="M1101.35,613.2c-1.71-.17-2.31.56-2.34,2.31-.33,19.54,1.12,38.56,11.46,56.07,7.8,13.19,24.62,21.75,41.75,15.7,11.28-4,21.18-10.08,31.1-16.36a287.9,287.9,0,0,0,52.46-42.79c16.77-17.26,32.19-35.69,44.57-56.48,3.67-6.17,6.75-12.6,8-19.66,2.71-15.34-3.1-27.49-15-36.9a99.15,99.15,0,0,0-36.91-18.55c-40.32-10.52-74.78-1.57-102.81,30-19.66,22.18-29.08,48.68-33.38,77.4-.45,3-2.3,6-.65,9.23" transform="translate(-59.46 -12.39)"/><path class="cls-1" d="M1907.3,908.79v-4.34a186.09,186.09,0,0,0-26.57-17.56c-16.29-8.6-32.82-16.74-49-25.49A558.6,558.6,0,0,1,1751.35,809c-8.66-6.82-17.74-13.15-26.9-19.39-17.75-12.09-44.26-.43-47.16,23.31-2.08,17,6.4,26.79,19.3,34.64,19.3,11.74,39.32,22.29,57.19,36.34,22.75,17.9,42,39,58.89,62.38,8.69,12,17.18,24.14,22.45,38.14,6.5,17.29,10.51,35,8.72,53.69-.46,4.78-.43,9.62-.62,14.43" transform="translate(-59.46 -12.39)"/><path class="cls-1" d="M1563.21,13.93c7.83,1.44,12.29,7.57,17.28,12.75,23.22,24.12,42.42,51.31,60,79.67a29.21,29.21,0,0,1,3.47,9.21c2.49,11.61-2.48,19.63-14.92,24.28-7.12,2.65-14.56,3.75-22,4.46-31.22,3-49.63,15.77-60.12,46.84-7.61,22.55-13.42,45.7-23,67.59-8.65,19.79-21.59,36.15-39.33,48.42-18.13,12.54-37.68,22.17-59.41,26.93-49.94,10.93-94.73,1.61-132.76-33.83-19.67-18.33-33.22-41.06-45.75-64.57-8.35-15.64-15.07-31.82-18.55-49.15-4.12-20.46-4.3-40.54,8.22-58.9,10.58-15.53,26.32-22.92,43.37-28.18,14.9-4.6,30-8.46,45-12.82a45.33,45.33,0,0,0,13.37-6.77c11.44-8,12.29-20.51,3.32-31.81-8.64-10.9-20.19-18.43-31.59-26.17-5.63-3.83-11.28-6.91-18-7.95" transform="translate(-59.46 -12.39)"/><path class="cls-1" d="M1498.55,751.18c-39.49,6.33-74,22.88-102.67,50.9a107.16,107.16,0,0,0-29.44,50.16c-3,11.7-4.69,23.74-1.75,35.75,2.77,11.35,10.53,18.85,27.06,20.75a133,133,0,0,0,68.16-9.68c18.72-7.91,35.24-19.06,45.26-36.63,12.71-22.27,25.09-45,29.71-70.84,1.37-7.64,2.25-15.5.21-23.06-2.65-9.82-13-16.49-24.41-16.79-3.85-.11-7.75.57-11.55-.56" transform="translate(-59.46 -12.39)"/><path class="cls-1" d="M973.76,909.66c-19.89.79-39.32,4.34-57.68,12-21.52,8.93-41.17,20.86-53.68,41.48-10.9,18-7.64,36,5.63,46.25,9.87,7.64,21.15,11.56,33,13.6a170.43,170.43,0,0,0,47.31,1.21c23.36-2.53,45.23-9.7,64-24.23,13-10,23.23-22.22,26-39.18,2.88-17.38-6.25-42.26-30.63-48.38-9.57-2.41-19.41-4-29.42-2.48-1.29.2-2.69-.33-4-.52" transform="translate(-59.46 -12.39)"/><path class="cls-1" d="M770,426.14c-1.5-10.91-6.49-20.5-11.58-30a246.35,246.35,0,0,0-46.22-60.56c-13.43-13-27.92-25-45-32.84-18.87-8.62-38.48-11.37-57.62-.65C587.86,314.23,580,339,591.6,363.78c7.77,16.57,20.89,28.4,35.14,39.32,25.28,19.37,54.33,30,84.94,36.79,14,3.13,28.21,5.8,42.69,5.86,10.49,0,15.75-5.5,15.59-16.14,0-1,0-1.93,0-2.89" transform="translate(-59.46 -12.39)"/><path class="cls-1" d="M391.81,472.91c0,8.46,5.27,14.62,9.94,20.69a301.77,301.77,0,0,0,26.38,30.17c42.72,42.36,79.95,89.28,114.33,138.52,14.95,21.41,29.08,43.4,45.12,64,6.53,8.41,13.47,16.48,22.43,22.61,10.7,7.33,21.56,7.25,31.16-.69,20-16.53,33.06-37.62,38.62-62.89,6.62-30.16,1.52-58.59-14.91-84.83-13-20.72-30.4-37.16-49.6-52-28.67-22.19-60.94-38-93.61-53-22.48-10.32-45.49-19.47-68-29.63-15.33-6.9-31.33-10.56-47.95-12.05a5.92,5.92,0,0,0-5.79,2.31c-3.68,4.91-7.26,9.85-8.07,16.18" transform="translate(-59.46 -12.39)"/><path class="cls-1" d="M1025.14,13.93c-11.82.92-21.75,7.26-32.26,11.7a363.59,363.59,0,0,1-67.63,20.56c-13,2.7-26,5.5-38.63,9.44-15,4.69-28,13.47-40.49,22.9a232.77,232.77,0,0,1-22,15c-14.47,8.51-30.37,10.87-46.69,7.75C760.75,98.05,744,94.79,727.82,89a75.43,75.43,0,0,1-13.9-6.86c-10.49-6.45-14.71-18.63-11.46-31.81,2.81-11.4,7.84-22,12.09-32.91.8-2,3.11-1.86,4.61-2.89" transform="translate(-59.46 -12.39)"/><path class="cls-1" d="M205.33,14.51c-3.36.33-5.32,2.6-6.91,5.2-12.7,20.75-24.67,41.91-32,65.25-6.59,21-7.65,42.31-.34,63.48,3.83,11.09,10,20.31,21.33,25.13,10,4.25,18.89,1.94,27.13-4.35,12.92-9.84,23.56-22,33.37-34.72,19.16-24.84,43.16-43.47,70.51-58.31,8.89-4.83,17.73-9.89,25.48-16.62,13.23-11.47,21.58-25,19.6-43.33" transform="translate(-59.46 -12.39)"/><path class="cls-1" d="M1907.3,343.59c-19,3.79-37.36,9.88-55.39,16.81-22.16,8.52-42.67,20.16-60.57,35.81-13.64,11.94-24,26.65-28.15,44.42-4.42,19.06-.59,37.35,11.44,53,13.47,17.49,31.59,27.1,53.54,30.89,27.53,4.76,51.77-3.18,75-16.47,1.84-1,5.44-1.88,3.82-5.67" transform="translate(-59.46 -12.39)"/><path class="cls-1" d="M144.14,1052.55c7.12-20,14-40.11,21.42-60,6.16-16.62,11.66-33.5,19-49.68,11.26-24.91,30.18-40.73,56.61-47.26,19.11-4.72,38.54-7.66,58.3-7,18.32.67,36.59,2,54.87,3.69,23.82,2.27,47.57,5.45,71.56,6.24,18.58.61,36.82,4.53,54.83,9.14a23.93,23.93,0,0,1,6.92,3.43c5.55,3.68,6.11,6.13,4.11,12.67-2.77,9.06-9.25,15.57-15.1,22.46-6.26,7.36-12.34,14.82-17.27,23.14-8.42,14.21-8.91,29.36-5.5,45a91.61,91.61,0,0,1,.3,38.1" transform="translate(-59.46 -12.39)"/><path class="cls-1" d="M1806.27,1052.55a86.72,86.72,0,0,0,4-40.4c-1.76-12.1-6.9-23.14-12.08-34.07-17-35.93-43-63.59-78-82.46-12.3-6.64-25-12.82-39.2-14.57-14-1.72-26.29,2.64-37.49,10.47-13.43,9.38-23.15,22.68-34.91,33.76-18.34,17.28-12.78,40.09-3.15,55.63,8,13,19.7,22.7,31.74,31.71q24.61,18.42,50.72,34.77a13.8,13.8,0,0,1,5.21,5.16" transform="translate(-59.46 -12.39)"/><path class="cls-1" d="M683.94,1052.55c3.66-9.62,8-19.06,10.83-28.91,5.28-18.2,3.19-36-5.09-53.06-7.9-16.22-20.07-28-37.51-33.43-14.18-4.42-28.23-2.48-42.13,1.93-31.19,9.9-54.72,29.22-71,57.47-7.95,13.81-11.24,29.23-15,44.46-1,3.93-3.34,7.39-3.51,11.54" transform="translate(-59.46 -12.39)"/><path class="cls-1" d="M1452.37,112.08c-9.4-.57-17.78,3.74-26.5,6-23.08,6-45.94,13-68.73,20.06-12.73,3.94-25.68,7.12-38.18,11.92-14.58,5.61-24.64,22.21-22.67,39.39,4.12,35.88,36.47,74,74.65,81.21,26.64,5.07,51.15.42,72.6-15.64,16.75-12.54,28-29.83,34.18-50,7.4-24.29,7.7-49.16,3.23-73.83-2.38-13.16-8.18-18.21-23.39-19.09-1.53-.09-3.08,0-4.62,0" transform="translate(-59.46 -12.39)"/><path class="cls-1" d="M1907.3,367.26c-13.56-.94-26,4.22-38.65,7.61a206,206,0,0,0-31.8,11.39c-17.84,8.07-34.08,18.14-43.79,35.88-12.64,23.06-7.6,57.37,16.57,74.58,29.73,21.17,69.61,16.45,96-5.8,1.94-1.63,1.39-3.07,1.63-4.73" transform="translate(-59.46 -12.39)"/><path class="cls-1" d="M124.51,15.08c-.9.86-2,1.1-2.44,2.86-3.82,15.07-8.36,30-11.9,45.09-4.57,19.57-8.78,39.23-10,59.43-1.14,19-1.36,38.1-1.71,57.16-.26,14.44-.77,28.89-1.74,43.3-1.63,24.24-11.38,44.73-30.06,60.48a15.12,15.12,0,0,0-5.08,7.65" transform="translate(-59.46 -12.39)"/><path class="cls-1" d="M1907.3,530.06c.4,2.13-.23,3.53-2.28,4.67-17,9.37-34.85,16.71-53.14,23-12.91,4.47-25.89,8.55-37.59,16.06-13.86,8.9-24.88,32.78-19,50.35,4,11.89,12.88,18.09,24.28,21.31,11.87,3.34,24.19,4.06,36.37,5.1,16.19,1.38,32.44,1.95,48.49,4.73a16.28,16.28,0,0,0,2.88,0" transform="translate(-59.46 -12.39)"/><path class="cls-1" d="M63,835.47c5.79,4.2,12.86,5.14,19.37,7.43,17.46,6.13,35.29,11.23,51.38,20.82,11.6,6.91,19.74,16.29,20.55,30.07.46,7.83-1,15.78-1.83,23.66-4,39.87-13.24,78.69-23.93,117.2-1.64,5.94-3.09,11.93-4.63,17.9" transform="translate(-59.46 -12.39)"/><path class="cls-1" d="M414.33,16.24c-6.34,29.64-25,49.81-50.26,64.61-15.65,9.14-32.91,14.94-49.13,23-24.46,12.13-43.71,29.64-58.82,52.12-11.89,17.69-25.41,34-42.17,47.3-6.44,5.11-13.32,9.71-21.32,12.17-15.91,4.89-25.79.65-33.44-11.56-12.16-19.4-18.55-40.69-20.27-63.48-2.82-37.25,5.72-72.3,20.22-106.24,2-4.6,4-9.18,5.73-13.87,1.09-2.91,2.67-5.06,5.82-5.75" transform="translate(-59.46 -12.39)"/><path class="cls-1" d="M340.43,579.71c-11.22-14-25.65-16.31-42.16-11.87-18.71,5-35.72,13.27-49.56,27a99.4,99.4,0,0,0-24.3,37.46c-3.45,9.73,1.68,18.68,11.47,21.51,2.54.74,4-.52,5.16-1.42,6.88-5.21,14.42-9.52,20.34-16C277.21,619,296.9,607.05,317.88,597c8.51-4.09,16.42-9.25,22.55-16.68" transform="translate(-59.46 -12.39)"/><path class="cls-1" d="M1462.18,794.48c-10.09,1.19-19.06,5.58-27.66,10.48-20,11.38-30.91,30-38.63,50.76-3.8,10.2,2.8,20.81,14.34,24.19,23.79,7,44,0,61.14-16.78a66.15,66.15,0,0,0,18.55-34,55.49,55.49,0,0,0,.45-20.78c-1.28-7.78-9.31-13.52-18.37-13.85-3.08-.11-6.16,0-9.24,0" transform="translate(-59.46 -12.39)"/><path class="cls-1" d="M900.15,208.49c.73,11.91,6.84,21.29,14.8,29.37,16.32,16.58,36.58,26.21,58.78,32.51,16.87,4.79,34.07,6.56,51.42,7.33,25.6,1.13,42.63-20.37,37.75-44.95-3.84-19.33-16.15-32.15-33.14-41s-35.39-11.58-54.27-12.16c-5-.16-10-.78-15-1.11-16.13-1.06-31,4.82-46.09,9-6,1.67-11.1,7.08-13.17,14a14.62,14.62,0,0,0-.78,4.64c0,1.69-1,1.95-2.31,1.73" transform="translate(-59.46 -12.39)"/><path class="cls-1" d="M1907.3,392.66c-31.79-4.79-59.31,5.62-84.23,24.32-13,9.77-18.26,28.94-11.68,46.14,6.42,16.79,18.17,27.56,35.33,31.87,11.72,2.94,23.09-.13,34-4.75,9.37-3.95,17.71-9.67,26.55-15.82V470" transform="translate(-59.46 -12.39)"/><path class="cls-1" d="M102,16c-3.49,6-4.71,12.89-6.09,19.4-3.36,15.86-7.14,31.66-9,47.85-2.4,20.76-4.62,41.52-6.46,62.34-2,22.39-2.89,44.9-7.66,67-2.23,10.29-4.8,20.29-8.8,30-1.49,3.63-2,7.66-3,11.51" transform="translate(-59.46 -12.39)"/><path class="cls-1" d="M61.58,507c2.91-7.38,10.3-10.13,15.64-15,25.77-23.25,48.89-48.46,61.69-81.48,5.32-13.72,9.11-28,6.16-42.66-3.55-17.62-12.16-27.71-31.55-30.56-13.44-2-26.75-.51-39.85,3.27-3.37,1-7,1-10.36,2.42" transform="translate(-59.46 -12.39)"/><path class="cls-1" d="M61,1053.13H1907.3" transform="translate(-59.46 -12.39)"/><path class="cls-1" d="M653.92,1052.55c.9-6,4.5-11.08,6.28-16.77,2.92-9.26,7.15-18.24,7-28.26-.37-24-20.06-39.48-38.68-38.78-24.09.91-42.47,10.69-54.94,31.79-9.28,15.68-14.68,32.85-21,49.72a10.13,10.13,0,0,0-.31,2.3" transform="translate(-59.46 -12.39)"/><path class="cls-1" d="M146.44,14.51c-2.74,1-3.87,2.68-4.81,5.71-3.76,12.15-8.06,24.11-11.48,36.4a410.88,410.88,0,0,0-10.33,45.05c-4.1,25.75-1.73,51.24,1.68,76.81,1.79,13.46,4.16,26.84,5.5,40.38,1,9.63,2.7,19.18,2.67,28.89-.07,21.48-8.92,37.91-27.62,49.18-11.34,6.84-23.5,11.9-35.33,17.69-2.56,1.25-4.36,2.61-5.14,5.29" transform="translate(-59.46 -12.39)"/><path class="cls-1" d="M1645.77,1052.55c-4.63-6.46-11.76-9.93-18-14.3-21.81-15.3-43.49-30.79-65.28-46.13-13.09-9.22-34-11.29-45.56-1.45a22.53,22.53,0,0,0-5.57,7.09c-1.81,3.54-.63,6.89,2.17,9.78,7.19,7.4,15.77,13.1,23.7,19.6,7.29,6,14.73,11.81,21.88,18,2.44,2.11,5.3,4.08,6.4,7.44" transform="translate(-59.46 -12.39)"/><path class="cls-1" d="M61.58,867.22c.78,2.69,2.73,3.9,5.12,5.33,11.84,7.06,23.73,13.89,33.13,24.56,11,12.45,16,27,17.61,42.87a197.6,197.6,0,0,1-2.23,54.82c-3.11,17.72-7.32,35.2-12,52.55-.47,1.71-.78,3.47-1.17,5.2" transform="translate(-59.46 -12.39)"/><path class="cls-1" d="M414.33,1052.55c1.16-15.64-5.84-28.72-13.33-41.54-9.31-16-19-31.73-24.18-49.69-1.67-5.79-2.15-12-5.27-17.28-6.33-10.69-17.12-15-28.28-17.77-10.58-2.67-21.49-5.5-32.29-5.63-24.9-.31-48.7,4-68.8,20.93-14.45,12.21-24.86,27.4-35.11,42.86-13.3,20.09-24.83,41.23-36.29,62.39-.9,1.67-2.24,3.5-1.82,5.73" transform="translate(-59.46 -12.39)"/><path class="cls-1" d="M1905,437.69c-4.55-14-10.86-18.6-26-18.44-14.38.15-27.34,4.05-36.94,15.57-6.49,7.79-8.08,16.53-4,25.95,4.33,10.05,12.9,13.77,23.07,14.4,15.36.94,26.19-7.09,35.22-18.43a43.24,43.24,0,0,0,8.65-18.47" transform="translate(-59.46 -12.39)"/><path class="cls-1" d="M362.94,1052.55c-5.64-20.91-20.58-33.55-38.69-43.28-11.7-6.29-24.42-9.16-37.52-10.38-10.77-1-20.59,2.76-30,7.26-21.37,10.27-38.74,25.43-52.55,44.68a6.25,6.25,0,0,0-.6,1.72" transform="translate(-59.46 -12.39)"/><path class="cls-1" d="M1422.35,190.59c-3-9.23-8.23-16.46-17.92-19.29C1393,168,1382,170,1371.58,175.09a37.22,37.22,0,0,0-12.84,9.65c-4.27,5.25-6.06,13.55-.36,20.77,15,19.08,49.15,21.88,61.63-6.84,1-2.4,2.78-4.63,2.34-7.5" transform="translate(-59.46 -12.39)"/><path class="cls-1" d="M61.58,492a15.21,15.21,0,0,1,5.14-8.15c21.14-18.75,39.06-39.88,47.65-67.49,3.28-10.55,4.81-21.56-.43-31.65-6.44-12.41-18.44-16.47-31.58-17.34-6.33-.42-12.7-.07-19-.07" transform="translate(-59.46 -12.39)"/><path class="cls-1" d="M1907,704.42c.12-1,.23-1.92.37-3-13.23-2.68-26.55-4.18-39.91-2.65-11.61,1.33-22.87,4.33-32.94,10.82-13.54,8.72-15.84,21-6.8,34,12.36,17.84,29.38,30.35,49,39.26,9.21,4.19,18.71,7.9,28.84,9.21,3.25.42,1,2.49,1.72,3.57" transform="translate(-59.46 -12.39)"/><path class="cls-1" d="M63.31,793.33c10.89,1.84,21.8,3.19,32.91,2.34,16.88-1.3,26.63-12.33,24-28.87-3.41-21.82-14.09-39.75-32.05-53.24-7.51-5.64-15.88-8.78-24.61-11.45" transform="translate(-59.46 -12.39)"/><path class="cls-1" d="M61,901.86c1.45,8.3,8.93,12.27,13.41,18.38C85.33,935.15,90.38,951.81,91,970c.75,22.45-2.83,44.32-9.11,65.84-1.58,5.4-2,11.14-3,16.72" transform="translate(-59.46 -12.39)"/><path class="cls-1" d="M994,13.93c-14.94,1.52-28.74,7.63-43.29,10.76a255.72,255.72,0,0,1-44.47,6c-17.32.63-34.68.64-52,1.9a215.3,215.3,0,0,0-48.5,9.09c-10.3,3.2-20.77,3-31.16,1.05-7.35-1.35-11.62-7.2-11.51-14.91.06-3.86.71-7.7,1.1-11.55" transform="translate(-59.46 -12.39)"/><path class="cls-1" d="M1644,13.93c16.46,6.14,27.7,18.85,39.27,31.16,8.33,8.85,14.34,19.29,20.77,29.46,11.92,18.84,28.39,31.73,50.26,36.52,18,4,34.64-.07,47.81-13.51a140.44,140.44,0,0,0,33.66-54.73,167.91,167.91,0,0,0,6.83-26.59" transform="translate(-59.46 -12.39)"/><path class="cls-1" d="M79.47,15.08c-.9.86-2,1.13-2.44,2.85C74,29.17,71.68,40.58,69.69,52c-4.1,23.49-7.48,47.07-7.59,71,0,7.13-.72,14.25-1.1,21.37" transform="translate(-59.46 -12.39)"/><path class="cls-1" d="M1691.38,13.93c10.78,1.55,18.19,9.44,27.14,14.43,6.72,3.75,12.93,8.31,19.53,12.29,28.49,17.19,52.63,4.39,65.23-21,.94-1.9,1.69-3.57,3.57-4.57" transform="translate(-59.46 -12.39)"/><path class="cls-1" d="M62.15,391.5c.86.9,1,2.09,2.87,2.43,17.15,3.22,20.75,10.28,24.08,24.18,1.51,6.27-1.85,12.53-4,18.37-4.46,12-10.54,23.35-20.07,32.35-2.09,2-2.42,4.59-3.43,7" transform="translate(-59.46 -12.39)"/><path class="cls-1" d="M1907.3,550.85c-.07,2.37-.14,4-2.72,6-9.55,7.25-19.2,14.48-27.29,23.47a53.05,53.05,0,0,0-3.46,4c-8.2,11.19-6.12,16.89,8.08,24.22,8,4.12,16.68,6.18,25.39,8.1" transform="translate(-59.46 -12.39)"/><path class="cls-1" d="M1229.52,48.57c4.23.38,8.47.69,12.7,1.17,6.36.72,8,4.13,5.88,10.41-1.28,3.86-3.75,6.61-6.49,9.17C1229.05,81.05,1215,91,1201.09,100.91c-3.57,2.55-7.35,5.81-12,6.48-13.5,2-18.92-9.79-15.23-20.12,6.2-17.36,19.1-27.95,36-34,6-2.16,12-4.32,18.46-4.65" transform="translate(-59.46 -12.39)"/><path class="cls-1" d="M356.59,666.31c-4.11,1.61-8.52,1.91-12.75,3.32-21.54,7.2-29.07,35.35-19.52,52.07,5.05,8.83,13.58,13.94,22.51,17.81,15.47,6.72,30.83,7.24,46.2-1.5,18.4-10.47,23.65-30.78,10.29-49.73-11.2-15.88-27.11-22.32-46.15-22" transform="translate(-59.46 -12.39)"/><path class="cls-1" d="M1020.52,855.1c-16.35,4.23-32.76,8.28-49.06,12.74-33.16,9.07-65.92,19.35-97.58,32.87-22.19,9.48-43.85,19.89-62.35,35.79-8.42,7.24-15.7,15.25-19.69,26-6,16-1.35,30,8.88,42,12.95,15.24,30.68,23,49.44,29.16a241.61,241.61,0,0,0,52.62,11c15.85,1.5,31.94.55,47.9-1.59,30.85-4.14,59.89-13.63,85.88-30.6,24.74-16.15,44.84-36.87,55-65.62,13-36.87-3.45-70.86-30-87.16-6.17-3.78-13.2-4.36-20.19-4.59-6.73-.22-13.47,0-20.21,0" transform="translate(-59.46 -12.39)"/><path class="cls-1" d="M639.49,332.62c-2.51,1.54-5.33,2.73-7.46,4.67-9.55,8.73-9.94,14.91-3.3,25.21,10.77,16.71,26.63,27.33,46,32a41,41,0,0,0,18.44.43c8.1-1.79,11.9-7.82,8.86-15.56-8.3-21.16-20.64-38.61-44.08-45.05a56.79,56.79,0,0,0-17.9-1.74" transform="translate(-59.46 -12.39)"/><path class="cls-1" d="M629.09,270.26c-9.48,2.5-19.13,4-28.37,7.89-17.64,7.38-28.61,20.56-35,37.77a65.32,65.32,0,0,0-.09,46.7c4.92,13.19,13.32,24.07,23,34.11,14.93,15.42,32.44,27.3,50.82,38.1,28.56,16.77,58.74,30,89.46,42.23C751.29,486,774,493.93,796.5,502.4c8.51,3.19,17.08,4.72,26,2.52,15.1-3.72,20.77-19.52,17.61-32s-10.19-23.49-16.51-34.61c-13.89-24.42-32.11-45.56-50.67-66.49s-37.83-40.69-57.3-60.49c-15.67-15.94-33.45-28.81-55.32-35.38a140.63,140.63,0,0,0-30.63-5.68" transform="translate(-59.46 -12.39)"/><path class="cls-1" d="M622.17,248.33c-27.74,3.78-51,15.94-67.39,38.79-15.26,21.29-19.09,45.27-12.92,70.91,6.21,25.79,22.29,44.89,41,62.35,26.22,24.41,58.32,39.05,90.08,54.25,33.93,16.23,67.12,33.76,98.78,54.17,15.26,9.83,29.66,21.05,46.11,29,10.42,5,21.07,9.2,32.91,6.85,11.37-2.25,18.85-9.68,24.27-19.56,8.29-15.12,12.49-31.3,11.43-48.5-1.13-18.45-8.4-34.9-18.38-50.23-13.35-20.52-30.23-38.16-46.85-55.91-23.45-25-45.77-51.17-70.4-75.08-20.48-19.89-42-38.74-67.54-51.91-16.91-8.7-34.67-15.18-54.22-14.58a54.58,54.58,0,0,1-6.35-.54" transform="translate(-59.46 -12.39)"/><path class="cls-1" d="M1675.22,915.72c-11.23,4.95-21.27,11.22-29,21.27-12.23,16-11.22,35,3.57,49.17,19.36,18.52,42.4,30.18,68.13,37a126.19,126.19,0,0,0,17.3,3.64c21.27,2.53,31.84-12,29.74-30.78-1.8-16.18-9.35-29.87-18.76-42.72-8.68-11.85-19.68-21.22-31.74-29.46a45.51,45.51,0,0,0-25.41-8c-4.42-.09-8.85,0-13.28,0" transform="translate(-59.46 -12.39)"/><path class="cls-1" d="M962.79,932.46a186.17,186.17,0,0,0-42.15,8.65c-13.06,4.47-24.7,10.82-33,22.48a26.1,26.1,0,0,0,1.2,32.39c9.89,11.53,22.9,16.43,37.54,17.87a78.12,78.12,0,0,0,46.19-9.22c13.28-7.26,24.16-17.15,31.06-30.66,6.47-12.66,2.25-23.52-10.86-32.85-8.81-6.27-18.73-8.84-29.44-8.66" transform="translate(-59.46 -12.39)"/><path class="cls-1" d="M617.55,224.08c-10.25,2.5-20.74,3.89-30.63,8-38.68,16.12-63.37,44-70.83,85.54-4.33,24.17.12,47.81,10.44,69.74,15.06,32,36.39,59.22,66.17,79.23,16,10.73,33.18,19,50.82,26.53,22.19,9.44,44.54,18.58,65.81,30,20.6,11.08,39.65,24.41,57.81,39.15,18.45,15,34,33.08,52.47,48,8.31,6.72,17.12,12.66,27.73,14.94,11.57,2.49,21.75-.67,30.6-8.57,12.63-11.26,21-25.43,28.26-40.43C916.91,554,922,530.41,920.51,505.82c-1.78-30-12.94-56.33-32.71-79.15-16.7-19.29-33.16-38.77-50.26-57.71-22.91-25.37-46.19-50.39-71.65-73.26C745.07,277,723.45,259.29,699,245.42c-20.33-11.51-42-19-65.25-21.27-5.15-.49-10.39-.07-15.59-.07" transform="translate(-59.46 -12.39)"/><path class="cls-1" d="M951.24,955c-9.81,1.35-19.51,3-27.72,9.22-8.93,6.81-9.39,15.13-1.14,22.53,3.94,3.54,8.92,4.75,13.86,5.09,14.77,1,26.62-4.38,34.63-17.21,3.24-5.2,1.82-10.89-3.44-15-4.63-3.66-9.89-4.81-15.61-4.59" transform="translate(-59.46 -12.39)"/><path class="cls-1" d="M761.88,634.56c-6.67,1.92-9.39,7.28-10.29,13.29-3,20-5.38,40-8.22,60-1.92,13.5-4.27,26.93-6.3,40.42-2.45,16.37-1.94,32.29,8.68,46.16,9.27,12.11,22.33,17.81,36.93,19.54,32.67,3.86,62.45-5.33,90.64-21.22,22.17-12.49,41.15-28.45,55.39-49.69,8.42-12.56,12.15-26.79,13.81-41.57,1.37-12.3.76-24.64-.5-36.94-.46-4.45-1.61-8.93-5.85-10.81-4.44-2-8.72-.33-12.68,2.67-9.41,7.09-17.4,15.75-26.48,23.2a117.52,117.52,0,0,1-27.17,16.7c-13.34,5.88-26,4-38.08-3.5-13-8.11-23.14-19.48-33.56-30.52-6.44-6.83-11.57-14.93-19.57-20.27a55.12,55.12,0,0,0-16.17-7.49" transform="translate(-59.46 -12.39)"/><path class="cls-1" d="M522.29,541.61c-3.68,1.59-6.32,4.6-8.54,7.6-3.52,4.75-3.22,10.24-.68,15.48,5.81,12,12,23.84,19,35.26a359.12,359.12,0,0,0,58.34,72.16c6.45,6.19,13.35,11.26,22.53,12.73,16.89,2.68,27.36-8.08,31.07-20.87,6.08-20.89.51-40-10.89-57.67-13.92-21.57-33.77-36.45-56-48.5a141,141,0,0,0-37.53-14.08c-5.47-1.19-11.14-1.44-16.73-2.11" transform="translate(-59.46 -12.39)"/><path class="cls-1" d="M1414.26,143.83c-19.1,3.38-38.29,6.36-57.14,11-8.58,2.13-17.16,5.08-24.15,10.47-10.87,8.4-16.62,19.5-10.9,36.75,11.47,34.58,48.82,55.51,84.16,45.27,28.21-8.18,43.73-27.12,50.73-54.45,3-11.92,1.24-23.35-4.63-34-6.1-11.1-17-13.22-28.25-14.43-3.07-.33-6.16-.41-9.24-.6" transform="translate(-59.46 -12.39)"/><path class="cls-1" d="M264.22,29.52c-20,7.45-34.68,21.12-46.2,38.67a78.54,78.54,0,0,0-10.94,26,23,23,0,0,0-.57,4c-.2,4.52.13,9.26,4.66,11.41s8.78-.3,12-3.38C241.1,89.15,260,73.08,276.84,54.84c3.88-4.22,8.39-8.53,7.08-15.52-1.19-6.34-3.67-9.23-9.89-9.76-3.06-.26-6.15,0-9.23,0" transform="translate(-59.46 -12.39)"/><path class="cls-1" d="M1189.68,546.23c-11.27,4.86-22,10.6-30,20.22-11,13.18-14.36,28.23-11,45,1.79,9.07,10.86,13.58,19.11,11.81,14-3,25.37-10.42,35.22-20.49,8.93-9.12,15.23-19.78,17.84-32.33,2.4-11.52-4.44-24.08-19-24.24-3.85,0-7.7,0-11.55,0" transform="translate(-59.46 -12.39)"/><path class="cls-1" d="M353.13,632.25c-32,4.57-55.69,21.17-69.71,50.3-8.84,18.37-10.47,37.45.49,55.9,4.82,8.12,12.29,14,19.67,19.52,11.38,8.47,23.75,15.45,37.43,19.77,18.11,5.71,36.75,7,54.76,1.47,25.46-7.88,44.52-23.75,50.12-51.16,4.69-22.89-.3-44.33-14.9-62.83-13.4-17-31.52-26.86-52.49-31.05a94.68,94.68,0,0,0-24.79-1.92" transform="translate(-59.46 -12.39)"/></svg>