<?xml version="1.0" encoding="UTF-8"?>
<svg id="Capa_2" data-name="Capa 2" xmlns="http://www.w3.org/2000/svg" viewBox="0 0 231.72 68.91">
  <defs>
    <style>
      .cls-1 {
        fill: #202b53;
      }
    </style>
  </defs>
  <g id="Capa_1-2" data-name="Capa 1">
    <g>
      <path class="cls-1" d="M35.29,31.88h-14.71v36.15H5.57V31.88H.04c0-3.25-.11-6.33,.05-9.38,.08-1.59,1.71-2.71,3.52-2.83,.57-.04,1.15,0,1.72,0,.23-2.21,.24-4.38,.71-6.45C7.65,6,12.53,2.15,19.52,.8c2.44-.47,4.97-.54,7.46-.65,.43-.02,1.26,.69,1.27,1.08,.1,3.66,.06,7.33,.06,11.15-2.63,.33-5.57,.09-7.09,2.62-.74,1.22-.66,2.94-1.01,4.73h29.91v48.35h-14.83V31.88Z"/>
      <path class="cls-1" d="M153.3,29.27v-9.29c3.48,0,6.8-.29,10.05,.09,2.91,.34,5.13,3.15,5.14,6.04,.06,13.82,.01,27.63,0,41.45,0,.11-.05,.23-.19,.79-3.46-.18-7.08-.06-10.57-.66-2.6-.45-4-2.67-4.3-5.35-.13-1.18-.14-2.38-.51-3.63-.28,.54-.54,1.08-.83,1.61-3.36,6.22-10.02,9.4-17.2,8.43-8.05-1.09-13.55-5.56-16.44-12.91-4-10.18-3.36-20.09,3.18-29.2,6.07-8.45,19.35-10.13,26.95-3.36,1.56,1.39,2.58,3.39,3.85,5.12,.21,.29,.37,.63,.56,.95,.1-.02,.21-.05,.31-.07Zm-21.89,14.8c0,.35-.03,.7,0,1.05,.45,4.45,2.19,8.08,6.55,9.94,3.93,1.67,7.65,1.16,11.04-1.37,4.14-3.09,5.52-9.69,3.26-15.14-2.29-5.53-8.56-8.15-14.06-5.88-4.31,1.78-6.9,6.1-6.79,11.41Z"/>
      <path class="cls-1" d="M96.75,67.93c0-8.25,.02-16.46-.02-24.68,0-1.62-.12-3.28-.47-4.85-.9-4-4.13-6.75-7.93-6.98-4.7-.29-8.17,1.69-9.67,5.84-.66,1.83-1.04,3.84-1.08,5.79-.13,6.64-.04,13.28-.05,19.93,0,3.61-1.61,5.21-5.21,5.22-2.85,0-5.71-.03-8.56,.01-1.11,.02-1.52-.34-1.52-1.51,.03-15.09,.02-30.18,0-45.27,0-.99,.15-1.77,1.36-1.76,4.43,.02,8.85,.04,13.28,.07,.16,0,.32,.12,.65,.25v8.85c1.51-1.89,2.78-3.92,4.47-5.51,7.97-7.53,25.72-5.64,29,10.38,.44,2.15,.63,4.39,.66,6.59,.08,7.52,.03,15.03,.02,22.55,0,3.62-1.73,5.37-5.32,5.36-3.03,0-6.06-.03-9.08-.05-.1,0-.21-.08-.52-.21Z"/>
      <path class="cls-1" d="M182.82,68.18V19.68c1.25,0,2.45,0,3.65,0,3.15,0,6.29,.07,9.44-.01,1.36-.03,1.86,.37,1.81,1.77-.1,2.43-.03,4.86,.28,7.38,.16-.26,.34-.51,.48-.78,3.22-6.04,8.36-8.9,15.09-8.87,7.36,.04,12.83,3.3,16.08,10,1.52,3.15,2.08,6.53,2.08,10,0,7.98,0,15.97-.02,23.95,0,3.38-1.64,5.04-4.99,5.06-3.24,.02-6.49,0-9.91,0,0-.9,0-1.59,0-2.27-.02-8.39,.02-16.78-.1-25.17-.07-5.17-3.5-8.93-8.15-9.31-5.3-.42-9.33,2.52-10.42,7.7-.29,1.36-.41,2.77-.42,4.16-.04,6.7-.02,13.4,0,20.1,0,2.77-1.87,4.75-4.65,4.78-3.36,.03-6.72,0-10.22,0Z"/>
      <path class="cls-1" d="M42.6,.03c1.34,0,2.68-.03,4.02,0,1.85,.06,2.94,.88,3.05,2.69,.16,2.67,.17,5.36,.05,8.03-.08,1.76-1.25,2.68-3.22,2.74-2.68,.07-5.36,.08-8.04,0-2.31-.07-3.24-1.11-3.25-3.39-.01-2.33-.03-4.66,0-6.99,.03-1.96,1.04-3,3.02-3.07,1.45-.05,2.91-.01,4.37-.01h0Z"/>
    </g>
  </g>
</svg>