<?xml version="1.0" encoding="UTF-8"?>
<svg id="Capa_2" data-name="Capa 2" xmlns="http://www.w3.org/2000/svg" viewBox="0 0 81.22 26.34">
  <defs>
    <style>
      .cls-1 {
        fill: #00205c;
        stroke: #00205c;
        stroke-miterlimit: 10;
      }
    </style>
  </defs>
  <g id="Capa_1-2" data-name="Capa 1">
    <g>
      <path class="cls-1" d="M.5,11.28v-3H13.5v3H.5ZM6.53,5.39c-.55,.32-.57,1.21-.57,1.21V25.49H2.32V5.04c0-1.05-.04-1.14,.57-1.86,.79-.91,1.19-.87,2.07-1.1s3.05-.15,4.12-.15l.02,3.12h-1.15c-1.07,0-.76-.05-1.43,.34Zm7.9-.34c-.77,0-1.37-.2-1.79-.6-.42-.4-.63-.96-.63-1.68,0-.68,.22-1.22,.65-1.64,.43-.42,1.02-.63,1.77-.63s1.36,.2,1.78,.6c.42,.4,.63,.96,.63,1.68,0,.68-.22,1.22-.65,1.64-.43,.42-1.02,.63-1.77,.63Zm-1.75,20.43l-.18-17.2h4l-.22,17.2h-3.6Z"/>
      <path class="cls-1" d="M21.81,25.49V7.11h3.6v3.78l-.63,.42c.23-.82,.69-1.57,1.36-2.26,.68-.69,1.48-1.25,2.42-1.68,.93-.43,1.89-.65,2.87-.65,1.4,0,2.57,.27,3.5,.82,.93,.55,1.63,1.38,2.1,2.5,.47,1.12,.7,2.53,.7,4.23v11.2h-3.6V14.53c0-1.05-.14-1.92-.42-2.61-.28-.69-.71-1.19-1.29-1.5-.58-.31-1.31-.45-2.17-.4-.7,0-1.34,.11-1.93,.33-.58,.22-1.09,.53-1.52,.93s-.77,.86-1.01,1.38c-.25,.52-.37,1.09-.37,1.7v11.13h-3.6Z"/>
      <path class="cls-1" d="M49.71,25.84c-1.52,0-2.9-.42-4.15-1.26-1.25-.84-2.25-1.98-2.99-3.43-.75-1.45-1.12-3.08-1.12-4.9s.38-3.48,1.14-4.92c.76-1.44,1.79-2.56,3.08-3.38,1.29-.82,2.75-1.22,4.36-1.22,.96,0,1.83,.14,2.62,.42,.79,.28,1.49,.67,2.08,1.17,.6,.5,1.08,1.08,1.47,1.73,.38,.65,.62,1.35,.72,2.1l-.8-.28V7.11h3.64V25.49h-3.64v-4.38l.84-.25c-.14,.63-.43,1.24-.86,1.84-.43,.59-.98,1.13-1.65,1.59-.67,.47-1.4,.84-2.21,1.12-.81,.28-1.65,.42-2.54,.42Zm.95-3.33c1.1,0,2.06-.27,2.9-.8,.84-.54,1.5-1.28,1.98-2.22,.48-.94,.72-2.02,.72-3.24s-.24-2.25-.72-3.18c-.48-.93-1.14-1.67-1.98-2.21s-1.81-.8-2.9-.8-2.02,.27-2.85,.8c-.83,.54-1.48,1.27-1.96,2.21-.48,.93-.72,1.99-.72,3.18s.24,2.29,.72,3.24c.48,.95,1.13,1.69,1.96,2.22,.83,.54,1.78,.8,2.85,.8Z"/>
      <path class="cls-1" d="M64.79,25.49V7.11h3.6v3.78l-.63,.42c.23-.82,.69-1.57,1.36-2.26,.68-.69,1.48-1.25,2.42-1.68,.93-.43,1.89-.65,2.87-.65,1.4,0,2.57,.27,3.5,.82,.93,.55,1.63,1.38,2.1,2.5,.47,1.12,.7,2.53,.7,4.23v11.2h-3.6V14.53c0-1.05-.14-1.92-.42-2.61-.28-.69-.71-1.19-1.29-1.5-.58-.31-1.31-.45-2.17-.4-.7,0-1.34,.11-1.93,.33-.58,.22-1.09,.53-1.52,.93s-.77,.86-1.01,1.38c-.25,.52-.37,1.09-.37,1.7v11.13h-3.6Z"/>
    </g>
  </g>
</svg>